<svg width="89" height="68" viewBox="0 0 89 68" fill="none" xmlns="http://www.w3.org/2000/svg">
<path d="M87 44.699V47.4633C87 49.9135 86.5174 52.3398 85.5797 54.6036C84.642 56.8673 83.2676 58.9242 81.535 60.6568C79.8024 62.3894 77.7455 63.7638 75.4818 64.7015C73.218 65.6392 70.7917 66.1218 68.3415 66.1218H20.6585C15.71 66.1218 10.9641 64.156 7.46496 60.6568C3.9658 57.1577 2 52.4118 2 47.4633V44.699H18.765C20.7813 47.6918 23.513 50.1337 26.7122 51.8031C28.4058 55.6124 31.1678 58.8487 34.6635 61.1201C38.1592 63.3915 42.2385 64.6005 46.4073 64.6005C50.5761 64.6005 54.6555 63.3915 58.1511 61.1201C61.6468 58.8487 64.4088 55.6124 66.1024 51.8031C69.287 50.1287 72.0041 47.6872 74.0081 44.699H87Z" stroke="white" stroke-width="2.76423"/>
<path d="M66.0678 51.803C64.3697 55.6023 61.6079 58.8288 58.116 61.0928C54.6242 63.3568 50.5516 64.5616 46.39 64.5616C42.2284 64.5616 38.1558 63.3568 34.664 61.0928C31.1721 58.8288 28.4104 55.6023 26.7122 51.803C29.7486 53.3777 33.1156 54.2089 36.536 54.2281C39.9565 54.2473 43.3326 53.454 46.3866 51.9136C49.4417 53.4541 52.819 54.2474 56.2405 54.2282C59.6621 54.2089 63.0302 53.3778 66.0678 51.803Z" stroke="white" stroke-width="2.76423"/>
<path d="M65.28 13.1729C62.3155 11.785 59.0744 11.0887 55.8015 11.1366C52.5285 11.1845 49.3092 11.9753 46.3865 13.4494C43.4639 11.9753 40.2446 11.1845 36.9716 11.1366C33.6986 11.0887 30.4576 11.785 27.493 13.1729C29.3533 9.78948 32.0881 6.96766 35.4116 5.00226C38.7351 3.03686 42.5254 2 46.3865 2C50.2477 2 54.038 3.03686 57.3615 5.00226C60.685 6.96766 63.4197 9.78948 65.28 13.1729V13.1729Z" stroke="white" stroke-width="2.76423"/>
<path d="M56.1166 54.2286C52.7364 54.2323 49.4029 53.4392 46.3866 51.9136C43.3326 53.454 39.9565 54.2473 36.536 54.2281C33.1156 54.2089 29.7486 53.3777 26.7122 51.803C28.4058 55.6122 31.1678 58.8486 34.6635 61.12C38.1591 63.3914 42.2385 64.6003 46.4073 64.6003C50.5761 64.6003 54.6554 63.3914 58.1511 61.12C61.6468 58.8486 64.4088 55.6122 66.1024 51.803C63.0187 53.4066 59.5923 54.2389 56.1166 54.2286Z" stroke="white" stroke-width="2.76423"/>
<path d="M27.1545 33.2758C25.6289 36.2921 24.8358 39.6256 24.8395 43.0058C24.8395 43.5794 24.8395 44.1392 24.9017 44.6989C25.0925 47.1534 25.705 49.5566 26.7122 51.803C23.1496 49.9469 20.1763 47.1324 18.1276 43.6768C16.079 40.2212 15.0365 36.2621 15.1177 32.2457C15.1989 28.2293 16.4005 24.3155 18.5871 20.9455C20.7737 17.5756 23.8583 14.8835 27.4931 13.1729C25.8112 16.2452 24.9015 19.6805 24.8426 23.1825C24.7836 26.6846 25.577 30.1485 27.1545 33.2758V33.2758Z" stroke="white" stroke-width="2.76423"/>
<path d="M46.3866 13.4492C41.9751 15.69 38.4652 19.3755 36.4423 23.8911C32.4442 25.9752 29.1971 29.2561 27.1545 33.2756C25.577 30.1484 24.7836 26.6845 24.8425 23.1824C24.9015 19.6803 25.8112 16.2451 27.4931 13.1728C30.4576 11.7849 33.6987 11.0886 36.9717 11.1365C40.2447 11.1844 43.464 11.9752 46.3866 13.4492Z" stroke="white" stroke-width="2.76423"/>
<path d="M37.2438 43.0541C32.8863 41.0081 29.3357 37.567 27.1544 33.2756C29.197 29.2561 32.4441 25.9751 36.4422 23.8911C35.0876 26.9304 34.455 30.242 34.5941 33.5666C34.7332 36.8912 35.6401 40.1385 37.2438 43.0541V43.0541Z" stroke="white" stroke-width="2.76423"/>
<path d="M46.3866 51.9135C43.3327 53.454 39.9566 54.2473 36.5361 54.228C33.1157 54.2088 29.7487 53.3776 26.7123 51.8029C25.705 49.5565 25.0925 47.1533 24.9017 44.6989C24.8602 44.1391 24.8395 43.5794 24.8395 43.0058C24.8358 39.6256 25.6289 36.292 27.1545 33.2757C29.3358 37.5671 32.8864 41.0082 37.244 43.0542V43.0542C37.548 43.6208 37.8866 44.1668 38.2391 44.6989C40.2973 47.7574 43.1015 50.2405 46.3866 51.9135V51.9135Z" stroke="white" stroke-width="2.76423"/>
<path d="M67.9338 23.5455C67.939 26.9259 67.1458 30.2598 65.6187 33.2756C63.5768 29.258 60.3325 25.9774 56.3378 23.8911C54.3104 19.3763 50.7987 15.6914 46.3866 13.4492C49.3092 11.9752 52.5286 11.1844 55.8015 11.1365C59.0745 11.0886 62.3156 11.7849 65.2801 13.1728V13.1728C67.0266 16.3507 67.9396 19.9193 67.9338 23.5455V23.5455Z" stroke="white" stroke-width="2.76423"/>
<path d="M56.3378 23.8912C53.2655 22.2928 49.8532 21.4583 46.39 21.4583C42.9268 21.4583 39.5146 22.2928 36.4423 23.8912C38.4651 19.3756 41.9751 15.6901 46.3866 13.4493C50.7986 15.6916 54.3103 19.3764 56.3378 23.8912Z" stroke="white" stroke-width="2.76423"/>
<path d="M77.6639 32.6814C77.6657 36.6246 76.5855 40.4927 74.5408 43.8643C72.4961 47.236 69.5654 49.9819 66.068 51.803C67.0696 49.555 67.6796 47.1524 67.8716 44.6989C67.9131 44.1392 67.9338 43.5794 67.9338 43.0058C67.9375 39.6256 67.1444 36.2921 65.6188 33.2758C67.1963 30.1485 67.9897 26.6846 67.9307 23.1825C67.8717 19.6805 66.9621 16.2452 65.2802 13.1729C68.9837 14.9132 72.1152 17.672 74.3082 21.1268C76.5013 24.5816 77.6652 28.5894 77.6639 32.6814V32.6814Z" stroke="white" stroke-width="2.76423"/>
<path d="M65.6188 33.2756C63.441 37.5648 59.8956 41.0056 55.5432 43.0541C57.1433 40.1371 58.0476 36.8898 58.1855 33.5657C58.3233 30.2415 57.691 26.9305 56.3379 23.8911C60.3326 25.9774 63.5769 29.258 65.6188 33.2756V33.2756Z" stroke="white" stroke-width="2.76423"/>
<path d="M55.5431 43.0541C55.2114 43.6207 54.9004 44.1529 54.5203 44.6988C52.466 47.7556 49.6667 50.2385 46.3866 51.9134C43.0964 50.2424 40.2873 47.7591 38.2252 44.6988C37.8728 44.1667 37.5342 43.6207 37.2301 43.0541C38.828 43.8077 40.5132 44.3602 42.2472 44.6988C44.9863 45.2257 47.8007 45.2257 50.5399 44.6988C52.2694 44.3601 53.95 43.8077 55.5431 43.0541V43.0541Z" stroke="white" stroke-width="2.76423"/>
<path d="M67.9337 43.0058C67.9337 43.5794 67.9337 44.1391 67.8716 44.6989C67.6795 47.1524 67.0695 49.555 66.0679 51.8029C63.0302 53.3777 59.6621 54.2089 56.2406 54.2281C52.819 54.2473 49.4418 53.454 46.3866 51.9135C49.6667 50.2386 52.466 47.7556 54.5203 44.6989C54.8728 44.1668 55.2114 43.6208 55.5155 43.0542C59.8782 41.0107 63.4339 37.5694 65.6187 33.2757C67.1443 36.292 67.9375 39.6256 67.9337 43.0058V43.0058Z" stroke="white" stroke-width="2.76423"/>
</svg>
